SplineFontDB: 3.2
FontName: Sushi-Sans
FullName: Sushi Sans
FamilyName: Sushi Sans
Weight: Demi
Copyright: Copyright (c) 2021, Aryan Jha
FontLog: "july 2021: kerning pairs edited by jolie chan (all uppercase to uppercase, uppercase to lowercase, lowercase to lowercase, and 7, 4, 6, 1)+AAoA-more kerning updates to come"
Version: 001.000
ItalicAngle: 0
UnderlinePosition: -101
UnderlineWidth: 50
Ascent: 825
Descent: 199
InvalidEm: 0
sfntRevision: 0x00010000
LayerCount: 2
Layer: 0 1 "Back" 1
Layer: 1 1 "Fore" 0
XUID: [1021 357 1213846176 2075]
StyleMap: 0x0000
FSType: 0
OS2Version: 4
OS2_WeightWidthSlopeOnly: 0
OS2_UseTypoMetrics: 1
CreationTime: 1577187939
ModificationTime: 1631210328
PfmFamily: 33
TTFWeight: 600
TTFWidth: 5
LineGap: 91
VLineGap: 0
Panose: 2 0 5 3 0 0 0 0 0 0
OS2TypoAscent: 825
OS2TypoAOffset: 0
OS2TypoDescent: -199
OS2TypoDOffset: 0
OS2TypoLinegap: 91
OS2WinAscent: 875
OS2WinAOffset: 0
OS2WinDescent: 276
OS2WinDOffset: 0
HheadAscent: 875
HheadAOffset: 0
HheadDescent: -276
HheadDOffset: 0
OS2SubXSize: 665
OS2SubYSize: 716
OS2SubXOff: 0
OS2SubYOff: 143
OS2SupXSize: 665
OS2SupYSize: 716
OS2SupXOff: 0
OS2SupYOff: 491
OS2StrikeYSize: 51
OS2StrikeYPos: 265
OS2CapHeight: 783
OS2XHeight: 580
OS2Vendor: 'PfEd'
OS2CodePages: 00000001.00000000
OS2UnicodeRanges: 00000003.00000000.00000000.00000000
Lookup: 258 0 0 "'kern' Horizontal Kerning in Latin lookup 0" { "'kern' Horizontal Kerning in Latin lookup 0 subtable" [153,15,0] } ['kern' ('DFLT' <'dflt' > 'latn' <'dflt' > ) ]
MarkAttachClasses: 1
DEI: 91125
ShortTable: maxp 16
  1
  0
  257
  78
  5
  0
  0
  2
  0
  1
  1
  0
  64
  0
  0
  0
EndShort

StartChar: .notdef
Encoding: 65536 -1 0
Width: 512
Flags: W
LayerCount: 2
Fore
SplineSet
51 0 m 1,0,-1
 51 550 l 1,1,-1
 461 550 l 1,2,-1
 461 0 l 1,3,-1
 51 0 l 1,0,-1
102 51 m 1,4,-1
 410 51 l 1,5,-1
 410 499 l 1,6,-1
 102 499 l 1,7,-1
 102 51 l 1,4,-1
EndSplineSet
Validated: 1
EndChar

StartChar: exclam
Encoding: 33 33 34
Width: 190
Flags: W
LayerCount: 2
Fore
SplineSet
44 52.5 m 128,-1,1
 44 74 44 74 59.5 89.5 c 128,-1,2
 75 105 75 105 96.5 105 c 128,-1,3
 118 105 118 105 133.5 89.5 c 128,-1,4
 149 74 149 74 149 53 c 0,5,6
 149 21 149 21 121 6 c 0,7,8
 119 5 119 5 117 4 c 0,9,10
 116 4 116 4 116 4 c 1,11,12
 107 0 107 0 96 0 c 0,13,14
 75 0 75 0 59.5 15.5 c 128,-1,0
 44 31 44 31 44 52.5 c 128,-1,1
50 201 m 1,15,-1
 34 780 l 1,16,-1
 74 780 l 1,17,-1
 157 780 l 1,18,-1
 141 201 l 1,19,-1
 50 201 l 1,15,-1
EndSplineSet
Validated: 1
EndChar

StartChar: numbersign
Encoding: 35 35 36
Width: 815
Flags: W
LayerCount: 2
Fore
SplineSet
755 474 m 1,0,-1
 782 576 l 1,1,-1
 627 575 l 1,2,-1
 683 781 l 1,3,-1
 578 781 l 1,4,-1
 522 575 l 1,5,-1
 362 574 l 1,6,-1
 418 781 l 1,7,-1
 312 781 l 1,8,-1
 256 574 l 1,9,-1
 101 574 l 1,10,-1
 74 472 l 1,11,-1
 229 472 l 1,12,-1
 184 308 l 1,13,-1
 29 308 l 1,14,-1
 1 206 l 1,15,-1
 157 207 l 1,16,-1
 101 1 l 1,17,-1
 206 1 l 1,18,-1
 262 207 l 1,19,-1
 422 207 l 1,20,-1
 366 1 l 1,21,-1
 471 1 l 1,22,-1
 528 208 l 1,23,-1
 683 208 l 1,24,-1
 710 310 l 1,25,-1
 555 309 l 1,26,-1
 600 473 l 1,27,-1
 755 474 l 1,0,-1
494 473 m 1,28,-1
 450 309 l 1,29,-1
 290 309 l 1,30,-1
 334 472 l 1,31,-1
 494 473 l 1,28,-1
EndSplineSet
Validated: 9
EndChar

StartChar: dollar
Encoding: 36 36 37
Width: 637
Flags: W
LayerCount: 2
Fore
SplineSet
594 618 m 1,0,-1
 475 586 l 1,1,2
 463 627 463 627 423 659 c 0,3,4
 375 697 375 697 305 699 c 0,5,6
 302 699 302 699 299 699 c 0,7,8
 258 699 258 699 228 687.5 c 128,-1,9
 198 676 198 676 182.5 658.5 c 128,-1,10
 167 641 167 641 160 624.5 c 128,-1,11
 153 608 153 608 153 593 c 0,12,13
 150 557 150 557 171.5 536 c 128,-1,14
 193 515 193 515 252 502 c 0,15,16
 273 498 273 498 299 494 c 0,17,18
 339 488 339 488 374 479 c 0,19,20
 420 468 420 468 457 450.5 c 128,-1,21
 494 433 494 433 529 405 c 128,-1,22
 564 377 564 377 583.5 334 c 128,-1,23
 603 291 603 291 603 238 c 0,24,25
 604 211 604 211 597.5 182 c 128,-1,26
 591 153 591 153 570 120 c 128,-1,27
 549 87 549 87 516.5 61 c 128,-1,28
 484 35 484 35 427.5 17.5 c 128,-1,29
 371 0 371 0 299 0 c 0,30,31
 272 0 272 0 247 3 c 1,32,-1
 244 -8 l 1,33,-1
 220 -95 l 1,34,-1
 101 -63 l 1,35,-1
 128 39 l 1,36,37
 89 61 89 61 59.5 93.5 c 128,-1,38
 30 126 30 126 14.5 161 c 128,-1,39
 -1 196 -1 196 -8 228 c 128,-1,40
 -15 260 -15 260 -15 288 c 1,41,-1
 109 288 l 1,42,43
 108 259 108 259 121 226 c 128,-1,44
 134 193 134 193 163 168 c 0,45,46
 207 130 207 130 279 125 c 0,47,48
 289 124 289 124 299 124 c 0,49,50
 479 124 479 124 479 238 c 0,51,52
 479 284 479 284 442.5 315.5 c 128,-1,53
 406 347 406 347 343 362 c 0,54,55
 322 366 322 366 299 369 c 0,56,57
 251 375 251 375 220 381 c 0,58,59
 181 390 181 390 150 403.5 c 128,-1,60
 119 417 119 417 90 440.5 c 128,-1,61
 61 464 61 464 44.5 502.5 c 128,-1,62
 28 541 28 541 28 593 c 0,63,64
 29 618 29 618 36.5 646 c 128,-1,65
 44 674 44 674 64 706.5 c 128,-1,66
 84 739 84 739 113 764 c 128,-1,67
 142 789 142 789 190.5 806 c 128,-1,68
 239 823 239 823 299 823 c 0,69,70
 319 823 319 823 338 821 c 1,71,-1
 368 933 l 1,72,-1
 368 934 l 1,73,-1
 488 902 l 1,74,-1
 456 785 l 1,75,76
 515 753 515 753 551.5 705 c 128,-1,77
 588 657 588 657 594 618 c 1,0,-1
EndSplineSet
Validated: 33
EndChar

StartChar: percent
Encoding: 37 37 38
Width: 850
Flags: W
LayerCount: 2
Fore
SplineSet
585 782 m 1,0,-1
 134 0 l 1,1,-1
 270 0 l 1,2,-1
 721 782 l 1,3,-1
 585 782 l 1,0,-1
208.5 433 m 128,-1,5
 281 433 281 433 332.5 484 c 128,-1,6
 384 535 384 535 384 607.5 c 128,-1,7
 384 680 384 680 332.5 731 c 128,-1,8
 281 782 281 782 208.5 782 c 128,-1,9
 136 782 136 782 85 731 c 128,-1,10
 34 680 34 680 34 607.5 c 128,-1,11
 34 535 34 535 85 484 c 128,-1,4
 136 433 136 433 208.5 433 c 128,-1,5
209 549 m 128,-1,13
 185 549 185 549 167.5 566 c 128,-1,14
 150 583 150 583 150 607.5 c 128,-1,15
 150 632 150 632 167.5 649 c 128,-1,16
 185 666 185 666 209 666 c 128,-1,17
 233 666 233 666 250.5 649 c 128,-1,18
 268 632 268 632 268 607.5 c 128,-1,19
 268 583 268 583 250.5 566 c 128,-1,12
 233 549 233 549 209 549 c 128,-1,13
641.5 0 m 128,-1,21
 714 0 714 0 765 51 c 128,-1,22
 816 102 816 102 816 174.5 c 128,-1,23
 816 247 816 247 765 298.5 c 128,-1,24
 714 350 714 350 641.5 350 c 128,-1,25
 569 350 569 350 518 298.5 c 128,-1,26
 467 247 467 247 467 174.5 c 128,-1,27
 467 102 467 102 518 51 c 128,-1,20
 569 0 569 0 641.5 0 c 128,-1,21
641.5 116 m 128,-1,29
 617 116 617 116 600 133 c 128,-1,30
 583 150 583 150 583 174.5 c 128,-1,31
 583 199 583 199 600 216 c 128,-1,32
 617 233 617 233 641.5 233 c 128,-1,33
 666 233 666 233 683 216 c 128,-1,34
 700 199 700 199 700 174.5 c 128,-1,35
 700 150 700 150 683 133 c 128,-1,28
 666 116 666 116 641.5 116 c 128,-1,29
EndSplineSet
Validated: 9
EndChar

StartChar: ampersand
Encoding: 38 38 39
Width: 635
Flags: W
LayerCount: 2
Fore
SplineSet
548 564 m 1,0,-1
 430 564 l 1,1,-1
 430 514 l 1,2,-1
 283 514 l 2,3,4
 217 514 217 514 215 591 c 0,5,6
 215 623 215 623 237 644.5 c 128,-1,7
 259 666 259 666 299 665 c 0,8,9
 328 663 328 663 352.5 650 c 128,-1,10
 377 637 377 637 389 624 c 1,11,-1
 475 704 l 1,12,13
 385 785 385 785 298 782 c 0,14,15
 297 782 297 782 295 782 c 256,16,17
 293 782 293 782 292 782 c 0,18,19
 240 779 240 779 201.5 760.5 c 128,-1,20
 163 742 163 742 141 714.5 c 128,-1,21
 119 687 119 687 108.5 656 c 128,-1,22
 98 625 98 625 98 591 c 0,23,24
 98 546 98 546 110.5 514 c 128,-1,25
 123 482 123 482 136 469 c 1,26,27
 98 445 98 445 73 401.5 c 128,-1,28
 48 358 48 358 41 322.5 c 128,-1,29
 34 287 34 287 34 257 c 0,30,31
 35 229 35 229 42 198.5 c 128,-1,32
 49 168 49 168 67 132.5 c 128,-1,33
 85 97 85 97 111.5 69 c 128,-1,34
 138 41 138 41 182 22 c 128,-1,35
 226 3 226 3 281 1 c 0,36,37
 284 1 284 1 287 1 c 0,38,39
 289 1 289 1 292 1 c 0,40,41
 311 1 311 1 329 3 c 0,42,43
 377 8 377 8 416.5 29 c 128,-1,44
 456 50 456 50 479.5 77.5 c 128,-1,45
 503 105 503 105 519 139 c 128,-1,46
 535 173 535 173 541.5 202 c 128,-1,47
 548 231 548 231 548 257 c 2,48,-1
 548 396 l 1,49,-1
 601 396 l 1,50,-1
 601 514 l 1,51,-1
 548 514 l 1,52,-1
 548 564 l 1,0,-1
283 396 m 2,53,-1
 430 396 l 1,54,-1
 430 257 l 2,55,56
 430 224 430 224 419.5 197.5 c 128,-1,57
 409 171 409 171 392.5 156.5 c 128,-1,58
 376 142 376 142 355.5 132.5 c 128,-1,59
 335 123 335 123 317.5 120 c 128,-1,60
 300 117 300 117 283 118 c 0,61,62
 264 117 264 117 244 122.5 c 128,-1,63
 224 128 224 128 202 142 c 128,-1,64
 180 156 180 156 166.5 186 c 128,-1,65
 153 216 153 216 153 257 c 128,-1,66
 153 298 153 298 166.5 328 c 128,-1,67
 180 358 180 358 202 372 c 128,-1,68
 224 386 224 386 244 391.5 c 128,-1,69
 264 397 264 397 283 396 c 2,53,-1
EndSplineSet
Validated: 41
EndChar

StartChar: parenleft
Encoding: 40 40 41
Width: 451
Flags: W
LayerCount: 2
Fore
SplineSet
417 849 m 1,0,-1
 385 961 l 1,1,2
 378 959 378 959 366 955 c 0,3,4
 346 947 346 947 324.5 936 c 128,-1,5
 303 925 303 925 268.5 901.5 c 128,-1,6
 234 878 234 878 204 849 c 128,-1,7
 174 820 174 820 142 774 c 128,-1,8
 110 728 110 728 87 674 c 128,-1,9
 64 620 64 620 49 544 c 128,-1,10
 34 468 34 468 34 382 c 0,11,12
 34 304 34 304 46 234 c 128,-1,13
 58 164 58 164 78 111.5 c 128,-1,14
 98 59 98 59 124.5 13.5 c 128,-1,15
 151 -32 151 -32 180 -63.5 c 128,-1,16
 209 -95 209 -95 237.5 -121 c 128,-1,17
 266 -147 266 -147 292.5 -162.5 c 128,-1,18
 319 -178 319 -178 339 -188 c 128,-1,19
 359 -198 359 -198 371 -202 c 2,20,-1
 383 -206 l 1,21,-1
 417 -93 l 1,22,23
 412 -92 412 -92 402.5 -88.5 c 128,-1,24
 393 -85 393 -85 365.5 -69 c 128,-1,25
 338 -53 338 -53 313 -32 c 128,-1,26
 288 -11 288 -11 258 28 c 128,-1,27
 228 67 228 67 206 113.5 c 128,-1,28
 184 160 184 160 169 230.5 c 128,-1,29
 154 301 154 301 154 382 c 0,30,31
 154 446 154 446 163 503 c 128,-1,32
 172 560 172 560 187.5 602 c 128,-1,33
 203 644 203 644 222.5 680.5 c 128,-1,34
 242 717 242 717 264 741.5 c 128,-1,35
 286 766 286 766 307.5 785.5 c 128,-1,36
 329 805 329 805 349 817 c 128,-1,37
 369 829 369 829 384 836.5 c 128,-1,38
 399 844 399 844 408 847 c 2,39,-1
 417 849 l 1,0,-1
EndSplineSet
Validated: 9
EndChar

StartChar: parenright
Encoding: 41 41 42
Width: 451
Flags: W
LayerCount: 2
Fore
SplineSet
34 848 m 1,0,1
 40 847 40 847 49.5 843.5 c 128,-1,2
 59 840 59 840 86 825 c 128,-1,3
 113 810 113 810 138 790 c 128,-1,4
 163 770 163 770 193 732 c 128,-1,5
 223 694 223 694 245 648 c 128,-1,6
 267 602 267 602 282 532.5 c 128,-1,7
 297 463 297 463 297 381 c 0,8,9
 297 317 297 317 288 260 c 128,-1,10
 279 203 279 203 263.5 160.5 c 128,-1,11
 248 118 248 118 228.5 81 c 128,-1,12
 209 44 209 44 187 18.5 c 128,-1,13
 165 -7 165 -7 143.5 -27.5 c 128,-1,14
 122 -48 122 -48 102 -60 c 128,-1,15
 82 -72 82 -72 67 -80 c 128,-1,16
 52 -88 52 -88 43 -91 c 2,17,-1
 34 -94 l 1,18,-1
 68 -207 l 1,19,20
 75 -205 75 -205 87.5 -200.5 c 128,-1,21
 100 -196 100 -196 136.5 -175.5 c 128,-1,22
 173 -155 173 -155 206 -129 c 128,-1,23
 239 -103 239 -103 279 -54.5 c 128,-1,24
 319 -6 319 -6 348 51.5 c 128,-1,25
 377 109 377 109 397 195.5 c 128,-1,26
 417 282 417 282 417 381 c 0,27,28
 417 459 417 459 405 529 c 128,-1,29
 393 599 393 599 372.5 651 c 128,-1,30
 352 703 352 703 326 747.5 c 128,-1,31
 300 792 300 792 271 823 c 128,-1,32
 242 854 242 854 212.5 878.5 c 128,-1,33
 183 903 183 903 157 918 c 128,-1,34
 131 933 131 933 110.5 943 c 128,-1,35
 90 953 90 953 78 956 c 2,36,-1
 66 960 l 1,37,-1
 34 848 l 1,0,1
EndSplineSet
Validated: 9
EndChar

StartChar: asterisk
Encoding: 42 42 43
Width: 466
Flags: W
LayerCount: 2
Fore
SplineSet
293 781 m 1,0,-1
 228 781 l 1,1,-1
 176 781 l 1,2,-1
 185 658 l 1,3,-1
 70 705 l 1,4,-1
 34 594 l 1,5,-1
 148 573 l 1,6,-1
 74 472 l 1,7,-1
 168 402 l 1,8,-1
 233 516 l 1,9,-1
 297 402 l 1,10,-1
 392 470 l 1,11,-1
 313 569 l 1,12,-1
 432 594 l 1,13,-1
 396 705 l 1,14,-1
 281 658 l 1,15,-1
 293 781 l 1,0,-1
EndSplineSet
Validated: 9
EndChar

StartChar: period
Encoding: 46 46 47
Width: 160
Flags: W
LayerCount: 2
Fore
SplineSet
20 61 m 0,0,1
 19 86 19 86 37 104 c 128,-1,2
 55 122 55 122 80 122 c 256,3,4
 105 122 105 122 123 104 c 128,-1,5
 141 86 141 86 141 61 c 256,6,7
 141 36 141 36 123 18 c 128,-1,8
 105 0 105 0 80 0 c 256,9,10
 55 0 55 0 37 18 c 128,-1,11
 19 36 19 36 20 61 c 0,0,1
EndSplineSet
Validated: 33
EndChar

StartChar: zero
Encoding: 48 48 49
Width: 659
Flags: W
LayerCount: 2
Fore
SplineSet
38 408 m 0,0,1
 38 468 38 468 47 519 c 128,-1,2
 56 570 56 570 70 605.5 c 128,-1,3
 84 641 84 641 105.5 670 c 128,-1,4
 127 699 127 699 147 716.5 c 128,-1,5
 167 734 167 734 192.5 747.5 c 128,-1,6
 218 761 218 761 236.5 767 c 128,-1,7
 255 773 255 773 277 776.5 c 128,-1,8
 299 780 299 780 308 780 c 128,-1,9
 317 780 317 780 327.5 780 c 128,-1,10
 338 780 338 780 347 780 c 128,-1,11
 356 780 356 780 378.5 776.5 c 128,-1,12
 401 773 401 773 419.5 767 c 128,-1,13
 438 761 438 761 464 747.5 c 128,-1,14
 490 734 490 734 511 716.5 c 128,-1,15
 532 699 532 699 553.5 670 c 128,-1,16
 575 641 575 641 589.5 605.5 c 128,-1,17
 604 570 604 570 613 519 c 128,-1,18
 622 468 622 468 622 408 c 0,19,20
 622 332 622 332 610.5 269 c 128,-1,21
 599 206 599 206 581 164.5 c 128,-1,22
 563 123 563 123 537 92 c 128,-1,23
 511 61 511 61 485.5 44 c 128,-1,24
 460 27 460 27 429 16.5 c 128,-1,25
 398 6 398 6 375 3 c 128,-1,26
 352 0 352 0 327.5 0 c 128,-1,27
 303 0 303 0 280 3 c 128,-1,28
 257 6 257 6 227 16.5 c 128,-1,29
 197 27 197 27 171.5 44 c 128,-1,30
 146 61 146 61 120.5 92 c 128,-1,31
 95 123 95 123 77.5 164.5 c 128,-1,32
 60 206 60 206 49 269 c 128,-1,33
 38 332 38 332 38 408 c 0,0,1
327.5 664 m 128,-1,35
 318 664 318 664 310 663.5 c 128,-1,36
 302 663 302 663 283 658 c 128,-1,37
 264 653 264 653 248.5 644.5 c 128,-1,38
 233 636 233 636 214.5 616.5 c 128,-1,39
 196 597 196 597 183.5 571 c 128,-1,40
 171 545 171 545 162 503 c 128,-1,41
 153 461 153 461 153 408 c 0,42,43
 153 116 153 116 328 116 c 0,44,45
 506 116 506 116 506 408 c 0,46,47
 506 461 506 461 497 503 c 128,-1,48
 488 545 488 545 475 571 c 128,-1,49
 462 597 462 597 443 616.5 c 128,-1,50
 424 636 424 636 408.5 644.5 c 128,-1,51
 393 653 393 653 373 658 c 128,-1,52
 353 663 353 663 345 663.5 c 128,-1,34
 337 664 337 664 327.5 664 c 128,-1,35
EndSplineSet
Validated: 1
EndChar

StartChar: one
Encoding: 49 49 50
Width: 260
Flags: W
LayerCount: 2
Fore
SplineSet
110 0 m 1,0,-1
 110 664 l 1,1,-1
 54 664 l 2,2,3
 52 664 52 664 63 702 c 128,-1,4
 74 740 74 740 86 781 c 1,5,-1
 110 781 l 1,6,-1
 227 781 l 1,7,-1
 227 0 l 1,8,-1
 110 0 l 1,0,-1
EndSplineSet
Validated: 33
EndChar

StartChar: two
Encoding: 50 50 51
Width: 666
Flags: W
LayerCount: 2
Fore
SplineSet
631 117 m 1,0,-1
 631 0 l 1,1,-1
 47 0 l 1,2,-1
 46 117 l 1,3,-1
 416 330 l 2,4,5
 460 352 460 352 487 394.5 c 128,-1,6
 514 437 514 437 514 488 c 0,7,8
 514 560 514 560 462.5 611.5 c 128,-1,9
 411 663 411 663 338 663 c 0,10,11
 278 663 278 663 231 626.5 c 128,-1,12
 184 590 184 590 169 533 c 1,13,-1
 56 564 l 1,14,15
 72 626 72 626 113 675 c 128,-1,16
 154 724 154 724 213 752 c 128,-1,17
 272 780 272 780 338 780 c 0,18,19
 418 780 418 780 485 741 c 128,-1,20
 552 702 552 702 591.5 634.5 c 128,-1,21
 631 567 631 567 631 488 c 0,22,23
 631 405 631 405 588 335.5 c 128,-1,24
 545 266 545 266 475 229 c 2,25,-1
 285 119 l 2,26,27
 282 117 282 117 282 117 c 129,-1,28
 282 117 282 117 285 117 c 2,29,-1
 631 117 l 1,0,-1
EndSplineSet
Validated: 1
EndChar

StartChar: three
Encoding: 51 51 52
Width: 628
Flags: W
LayerCount: 2
Fore
SplineSet
149 543 m 1,0,-1
 30 576 l 1,1,2
 32 593 32 593 42 614 c 128,-1,3
 52 635 52 635 69 658.5 c 128,-1,4
 86 682 86 682 111.5 703 c 128,-1,5
 137 724 137 724 167.5 741.5 c 128,-1,6
 198 759 198 759 238.5 769 c 128,-1,7
 279 779 279 779 323 779 c 0,8,9
 383 779 383 779 431.5 762.5 c 128,-1,10
 480 746 480 746 509 721.5 c 128,-1,11
 538 697 538 697 557.5 665 c 128,-1,12
 577 633 577 633 584.5 604.5 c 128,-1,13
 592 576 592 576 592 551 c 0,14,15
 592 497 592 497 557 450 c 128,-1,16
 522 403 522 403 488 390 c 1,17,18
 503 382 503 382 519.5 367.5 c 128,-1,19
 536 353 536 353 553 332.5 c 128,-1,20
 570 312 570 312 581 284.5 c 128,-1,21
 592 257 592 257 592 230 c 0,22,23
 592 205 592 205 584.5 177.5 c 128,-1,24
 577 150 577 150 557.5 117.5 c 128,-1,25
 538 85 538 85 509 60 c 128,-1,26
 480 35 480 35 431.5 18 c 128,-1,27
 383 1 383 1 323 1 c 0,28,29
 270 1 270 1 223 15.5 c 128,-1,30
 176 30 176 30 143 53 c 128,-1,31
 110 76 110 76 84.5 103.5 c 128,-1,32
 59 131 59 131 46 157 c 128,-1,33
 33 183 33 183 29 205 c 1,34,-1
 148 237 l 1,35,36
 153 221 153 221 164.5 203 c 128,-1,37
 176 185 176 185 196 166.5 c 128,-1,38
 216 148 216 148 249.5 136 c 128,-1,39
 283 124 283 124 323 124 c 128,-1,40
 363 124 363 124 393.5 135 c 128,-1,41
 424 146 424 146 439 163.5 c 128,-1,42
 454 181 454 181 461 197.5 c 128,-1,43
 468 214 468 214 469 230 c 0,44,45
 472 270 472 270 412 300.5 c 128,-1,46
 352 331 352 331 262 331 c 1,47,-1
 262 449 l 1,48,49
 351 449 351 449 411 479.5 c 128,-1,50
 471 510 471 510 468 551 c 0,51,52
 468 566 468 566 461 582.5 c 128,-1,53
 454 599 454 599 439 616.5 c 128,-1,54
 424 634 424 634 393.5 645 c 128,-1,55
 363 656 363 656 323 656 c 128,-1,56
 283 656 283 656 249.5 644 c 128,-1,57
 216 632 216 632 196 613.5 c 128,-1,58
 176 595 176 595 164.5 577.5 c 128,-1,59
 153 560 153 560 149 543 c 1,0,-1
EndSplineSet
Validated: 33
EndChar

StartChar: four
Encoding: 52 52 53
Width: 636
Flags: W
LayerCount: 2
Fore
SplineSet
542 389 m 1,0,-1
 603 389 l 1,1,-1
 569 270 l 1,2,-1
 542 270 l 1,3,-1
 542 0 l 1,4,-1
 425 0 l 1,5,-1
 425 270 l 1,6,-1
 13 270 l 1,7,-1
 153 783 l 1,8,-1
 274 783 l 1,9,-1
 168 389 l 1,10,-1
 425 389 l 1,11,-1
 425 783 l 1,12,-1
 542 783 l 1,13,-1
 542 389 l 1,0,-1
EndSplineSet
Validated: 1
EndChar

StartChar: five
Encoding: 53 53 54
Width: 704
Flags: W
LayerCount: 2
Fore
SplineSet
641 663 m 1,0,-1
 207 663 l 1,1,-1
 207 536 l 2,2,3
 207 532 207 532 207.5 532 c 128,-1,4
 208 532 208 532 211 534 c 0,5,6
 285 585 285 585 377 585 c 0,7,8
 456 585 456 585 523.5 546 c 128,-1,9
 591 507 591 507 630 439.5 c 128,-1,10
 669 372 669 372 669 292.5 c 128,-1,11
 669 213 669 213 630 145.5 c 128,-1,12
 591 78 591 78 523.5 39 c 128,-1,13
 456 0 456 0 377 0 c 0,14,15
 277 0 277 0 198.5 61 c 128,-1,16
 120 122 120 122 94 216 c 1,17,-1
 207 247 l 1,18,19
 222 190 222 190 269.5 153.5 c 128,-1,20
 317 117 317 117 377 117 c 0,21,22
 449 117 449 117 500.5 168.5 c 128,-1,23
 552 220 552 220 552 292.5 c 128,-1,24
 552 365 552 365 500.5 416.5 c 128,-1,25
 449 468 449 468 377 468 c 0,26,27
 317 468 317 468 269.5 431.5 c 128,-1,28
 222 395 222 395 207 338 c 1,29,-1
 94 369 l 1,30,-1
 94 663 l 1,31,-1
 94 780 l 1,32,-1
 641 780 l 1,33,-1
 641 663 l 1,0,-1
EndSplineSet
Validated: 1
EndChar

StartChar: six
Encoding: 54 54 55
Width: 659
Flags: W
LayerCount: 2
Fore
SplineSet
622 292.5 m 128,-1,1
 622 213 622 213 583 145.5 c 128,-1,2
 544 78 544 78 476.5 39 c 128,-1,3
 409 0 409 0 329.5 0 c 128,-1,4
 250 0 250 0 183 39 c 128,-1,5
 116 78 116 78 76.5 145.5 c 128,-1,6
 37 213 37 213 37 292 c 0,7,8
 37 373 37 373 79 443 c 2,9,-1
 273 781 l 1,10,-1
 408 781 l 1,11,-1
 295 586 l 2,12,13
 294 583 294 583 294 583 c 129,-1,14
 294 583 294 583 297 583 c 0,15,16
 313 585 313 585 330 585 c 0,17,18
 409 585 409 585 476.5 545.5 c 128,-1,19
 544 506 544 506 583 439 c 128,-1,0
 622 372 622 372 622 292.5 c 128,-1,1
329.5 118 m 128,-1,21
 402 118 402 118 453.5 169.5 c 128,-1,22
 505 221 505 221 505 293.5 c 128,-1,23
 505 366 505 366 453.5 417.5 c 128,-1,24
 402 469 402 469 329.5 469 c 128,-1,25
 257 469 257 469 205.5 417.5 c 128,-1,26
 154 366 154 366 154 293.5 c 128,-1,27
 154 221 154 221 205.5 169.5 c 128,-1,20
 257 118 257 118 329.5 118 c 128,-1,21
EndSplineSet
Validated: 1
EndChar

StartChar: seven
Encoding: 55 55 56
Width: 623
Flags: W
LayerCount: 2
Fore
SplineSet
604 780 m 1,0,-1
 280 0 l 1,1,-1
 155 0 l 1,2,-1
 429 662 l 1,3,-1
 20 662 l 1,4,-1
 20 780 l 1,5,-1
 604 780 l 1,0,-1
EndSplineSet
Validated: 1
EndChar

StartChar: eight
Encoding: 56 56 57
Width: 657
Flags: W
LayerCount: 2
Fore
SplineSet
521 425 m 0,0,1
 516 420 516 420 513 418 c 1,2,3
 517 416 517 416 522.5 412.5 c 128,-1,4
 528 409 528 409 541.5 398 c 128,-1,5
 555 387 555 387 566.5 374.5 c 128,-1,6
 578 362 578 362 590.5 342.5 c 128,-1,7
 603 323 603 323 611 301 c 0,8,9
 623 269 623 269 623 235 c 0,10,11
 623 160 623 160 569 99 c 1,12,13
 508 22 508 22 393 6 c 0,14,15
 362 1 362 1 330 1 c 0,16,17
 294 1 294 1 259 8 c 0,18,19
 161 24 161 24 103 87 c 1,20,21
 37 152 37 152 38 235 c 0,22,23
 38 281 38 281 59 322.5 c 128,-1,24
 80 364 80 364 118 396 c 0,25,26
 133 409 133 409 147 417 c 1,27,-1
 147 418 l 2,28,29
 145 420 145 420 142 423 c 0,30,31
 77 484 77 484 77 567 c 0,32,33
 77 634 77 634 121 689 c 0,34,35
 176 764 176 764 283 778 c 0,36,37
 306 781 306 781 330 781 c 0,38,39
 351 781 351 781 371 779 c 0,40,41
 492 766 492 766 548 677 c 0,42,43
 584 626 584 626 584 567 c 0,44,45
 584 486 584 486 521 425 c 0,0,1
468 566.5 m 128,-1,47
 468 607 468 607 427.5 635.5 c 128,-1,48
 387 664 387 664 330.5 664 c 128,-1,49
 274 664 274 664 234 635.5 c 128,-1,50
 194 607 194 607 194 566.5 c 128,-1,51
 194 526 194 526 234 497.5 c 128,-1,52
 274 469 274 469 330.5 469 c 128,-1,53
 387 469 387 469 427.5 497.5 c 128,-1,46
 468 526 468 526 468 566.5 c 128,-1,47
331.5 118 m 128,-1,55
 404 118 404 118 455 152 c 128,-1,56
 506 186 506 186 506 234 c 128,-1,57
 506 282 506 282 455 316 c 128,-1,58
 404 350 404 350 331.5 350 c 128,-1,59
 259 350 259 350 207.5 316 c 128,-1,60
 156 282 156 282 156 234 c 128,-1,61
 156 186 156 186 207.5 152 c 128,-1,54
 259 118 259 118 331.5 118 c 128,-1,55
EndSplineSet
Validated: 33
EndChar

StartChar: nine
Encoding: 57 57 58
Width: 649
Flags: W
LayerCount: 2
Fore
SplineSet
29 489 m 128,-1,1
 29 568 29 568 68.5 635.5 c 128,-1,2
 108 703 108 703 175 742 c 128,-1,3
 242 781 242 781 321.5 781 c 128,-1,4
 401 781 401 781 468.5 742 c 128,-1,5
 536 703 536 703 575 635.5 c 128,-1,6
 614 568 614 568 614 489 c 0,7,8
 614 408 614 408 572 339 c 2,9,-1
 378 1 l 1,10,-1
 244 1 l 1,11,-1
 358 198 l 2,12,13
 358 199 358 199 357 199 c 0,14,15
 339 197 339 197 322 197 c 0,16,17
 242 197 242 197 175 236 c 128,-1,18
 108 275 108 275 68.5 342.5 c 128,-1,0
 29 410 29 410 29 489 c 128,-1,1
322 663 m 128,-1,20
 249 663 249 663 197.5 612 c 128,-1,21
 146 561 146 561 146 488 c 128,-1,22
 146 415 146 415 197.5 363.5 c 128,-1,23
 249 312 249 312 322 312 c 128,-1,24
 395 312 395 312 446.5 363.5 c 128,-1,25
 498 415 498 415 498 488 c 128,-1,26
 498 561 498 561 446.5 612 c 128,-1,19
 395 663 395 663 322 663 c 128,-1,20
EndSplineSet
Validated: 1
EndChar

StartChar: at
Encoding: 64 64 65
Width: 854
Flags: W
LayerCount: 2
Fore
SplineSet
703 10 m 1,0,1
 649 -44 649 -44 578 -74 c 128,-1,2
 507 -104 507 -104 427.5 -104 c 128,-1,3
 348 -104 348 -104 276 -73 c 128,-1,4
 204 -42 204 -42 151.5 10 c 128,-1,5
 99 62 99 62 68 134.5 c 128,-1,6
 37 207 37 207 37 286 c 128,-1,7
 37 365 37 365 68 437.5 c 128,-1,8
 99 510 99 510 151.5 562 c 128,-1,9
 204 614 204 614 276 645 c 128,-1,10
 348 676 348 676 427.5 676 c 128,-1,11
 507 676 507 676 579 645 c 128,-1,12
 651 614 651 614 703 562 c 128,-1,13
 755 510 755 510 786 437.5 c 128,-1,14
 817 365 817 365 817 286 c 0,15,16
 817 205 817 205 785 130 c 1,17,-1
 608 175 l 1,18,19
 580 128 580 128 532 100.5 c 128,-1,20
 484 73 484 73 427 73 c 0,21,22
 341 73 341 73 279.5 134 c 128,-1,23
 218 195 218 195 218 282 c 128,-1,24
 218 369 218 369 279.5 430.5 c 128,-1,25
 341 492 341 492 427.5 492 c 128,-1,26
 514 492 514 492 575.5 430.5 c 128,-1,27
 637 369 637 369 637 282 c 0,28,29
 637 279 637 279 637 276 c 2,30,-1
 718 255 l 1,31,32
 720 270 720 270 720 286 c 0,33,34
 720 365 720 365 681 431.5 c 128,-1,35
 642 498 642 498 575.5 536.5 c 128,-1,36
 509 575 509 575 430.5 575 c 128,-1,37
 352 575 352 575 285.5 536.5 c 128,-1,38
 219 498 219 498 180.5 431.5 c 128,-1,39
 142 365 142 365 142 286.5 c 128,-1,40
 142 208 142 208 180.5 141.5 c 128,-1,41
 219 75 219 75 285.5 36 c 128,-1,42
 352 -3 352 -3 431 -3 c 0,43,44
 489 -3 489 -3 541 19 c 128,-1,45
 593 41 593 41 633 80 c 1,46,-1
 703 10 l 1,0,1
535 282 m 128,-1,48
 535 327 535 327 503.5 358.5 c 128,-1,49
 472 390 472 390 427.5 390 c 128,-1,50
 383 390 383 390 351 358.5 c 128,-1,51
 319 327 319 327 319 282 c 128,-1,52
 319 237 319 237 351 205.5 c 128,-1,53
 383 174 383 174 427.5 174 c 128,-1,54
 472 174 472 174 503.5 205.5 c 128,-1,47
 535 237 535 237 535 282 c 128,-1,48
EndSplineSet
Validated: 1
EndChar

StartChar: A
Encoding: 65 65 66
Width: 653
Flags: W
LayerCount: 2
Fore
SplineSet
34 0 m 1,0,-1
 34 450 l 2,1,2
 36 490 36 490 40.5 527.5 c 128,-1,3
 45 565 45 565 63 613.5 c 128,-1,4
 81 662 81 662 111.5 698 c 128,-1,5
 142 734 142 734 198 757.5 c 128,-1,6
 254 781 254 781 331 781 c 0,7,8
 387 781 387 781 430 768.5 c 128,-1,9
 473 756 473 756 503.5 734.5 c 128,-1,10
 534 713 534 713 555 684 c 128,-1,11
 576 655 576 655 588.5 626.5 c 128,-1,12
 601 598 601 598 607.5 563.5 c 128,-1,13
 614 529 614 529 616.5 504 c 128,-1,14
 619 479 619 479 619 450 c 2,15,-1
 619 0 l 1,16,-1
 502 0 l 1,17,-1
 502 331 l 1,18,-1
 151 331 l 1,19,-1
 151 0 l 1,20,-1
 34 0 l 1,0,-1
502 450 m 1,21,-1
 502 475 l 2,22,23
 502 484 502 484 500 502 c 128,-1,24
 498 520 498 520 494.5 532 c 128,-1,25
 491 544 491 544 486.5 563.5 c 128,-1,26
 482 583 482 583 473 596.5 c 128,-1,27
 464 610 464 610 451.5 623.5 c 128,-1,28
 439 637 439 637 422 644.5 c 128,-1,29
 405 652 405 652 381.5 657 c 128,-1,30
 358 662 358 662 331 662 c 0,31,32
 295 662 295 662 267 654 c 128,-1,33
 239 646 239 646 221 633.5 c 128,-1,34
 203 621 203 621 189.5 600.5 c 128,-1,35
 176 580 176 580 168 562 c 128,-1,36
 160 544 160 544 156.5 520.5 c 128,-1,37
 153 497 153 497 152 482.5 c 128,-1,38
 151 468 151 468 151 450 c 1,39,-1
 502 450 l 1,21,-1
EndSplineSet
Validated: 1
EndChar

StartChar: B
Encoding: 66 66 67
Width: 652
Flags: W
LayerCount: 2
Fore
SplineSet
36 781 m 1,0,-1
 340 781 l 2,1,2
 364 781 364 781 392.5 774 c 128,-1,3
 421 767 421 767 451.5 750.5 c 128,-1,4
 482 734 482 734 506.5 710 c 128,-1,5
 531 686 531 686 546.5 648 c 128,-1,6
 562 610 562 610 562 558 c 0,7,8
 562 468 562 468 513 414 c 1,9,10
 565 385 565 385 593 338.5 c 128,-1,11
 621 292 621 292 621 225 c 0,12,13
 621 180 621 180 606.5 143 c 128,-1,14
 592 106 592 106 569.5 81 c 128,-1,15
 547 56 547 56 520 39 c 128,-1,16
 493 22 493 22 460.5 13 c 128,-1,17
 428 4 428 4 401 1 c 128,-1,18
 374 -2 374 -2 349 0 c 2,19,-1
 36 0 l 1,20,-1
 36 781 l 1,0,-1
344 662 m 2,21,-1
 153 662 l 1,22,-1
 153 448 l 1,23,-1
 344 448 l 2,24,25
 358 448 358 448 373.5 456 c 128,-1,26
 389 464 389 464 405 476 c 128,-1,27
 421 488 421 488 433.5 510.5 c 128,-1,28
 446 533 446 533 446 561.5 c 128,-1,29
 446 590 446 590 433.5 611 c 128,-1,30
 421 632 421 632 405 643.5 c 128,-1,31
 389 655 389 655 373.5 658.5 c 128,-1,32
 358 662 358 662 344 662 c 2,21,-1
153 117 m 1,33,-1
 344 117 l 2,34,35
 502 117 502 117 502 225 c 0,36,37
 502 252 502 252 490.5 271 c 128,-1,38
 479 290 479 290 462.5 301.5 c 128,-1,39
 446 313 446 313 421 319.5 c 128,-1,40
 396 326 396 326 379 327 c 128,-1,41
 362 328 362 328 344 328 c 2,42,-1
 153 328 l 1,43,-1
 153 117 l 1,33,-1
EndSplineSet
Validated: 33
EndChar

StartChar: C
Encoding: 67 67 68
Width: 780
Flags: W
LayerCount: 2
Fore
SplineSet
758 198 m 1,0,1
 747 176 747 176 729 152 c 128,-1,2
 711 128 711 128 680.5 100 c 128,-1,3
 650 72 650 72 614 50.5 c 128,-1,4
 578 29 578 29 526.5 14.5 c 128,-1,5
 475 0 475 0 421 0 c 0,6,7
 349 0 349 0 284.5 22.5 c 128,-1,8
 220 45 220 45 174 83.5 c 128,-1,9
 128 122 128 122 94.5 172.5 c 128,-1,10
 61 223 61 223 43 279 c 128,-1,11
 25 335 25 335 25 390.5 c 128,-1,12
 25 446 25 446 43 502 c 128,-1,13
 61 558 61 558 94.5 608.5 c 128,-1,14
 128 659 128 659 173 697.5 c 128,-1,15
 218 736 218 736 283.5 759.5 c 128,-1,16
 349 783 349 783 421 783 c 0,17,18
 477 783 477 783 527.5 768.5 c 128,-1,19
 578 754 578 754 615 732.5 c 128,-1,20
 652 711 652 711 682.5 684 c 128,-1,21
 713 657 713 657 730 633.5 c 128,-1,22
 747 610 747 610 758 590 c 1,23,-1
 657 529 l 1,24,25
 646 547 646 547 627 568.5 c 128,-1,26
 608 590 608 590 578.5 613.5 c 128,-1,27
 549 637 549 637 507.5 649.5 c 128,-1,28
 466 662 466 662 421 662 c 0,29,30
 360 662 360 662 307 639 c 128,-1,31
 254 616 254 616 219 578 c 128,-1,32
 184 540 184 540 164 490.5 c 128,-1,33
 144 441 144 441 144 390.5 c 128,-1,34
 144 340 144 340 164 290.5 c 128,-1,35
 184 241 184 241 220 202.5 c 128,-1,36
 256 164 256 164 308 141.5 c 128,-1,37
 360 119 360 119 421 119 c 0,38,39
 466 119 466 119 506.5 132.5 c 128,-1,40
 547 146 547 146 577.5 168.5 c 128,-1,41
 608 191 608 191 627 213.5 c 128,-1,42
 646 236 646 236 657 254 c 1,43,-1
 758 198 l 1,0,1
EndSplineSet
Validated: 1
EndChar

StartChar: D
Encoding: 68 68 69
Width: 630
Flags: W
LayerCount: 2
Fore
SplineSet
22 783 m 1,0,-1
 230 783 l 2,1,2
 279 783 279 783 330.5 767.5 c 128,-1,3
 382 752 382 752 433 719 c 128,-1,4
 484 686 484 686 524.5 641 c 128,-1,5
 565 596 565 596 588.5 532 c 128,-1,6
 612 468 612 468 612 396 c 0,7,8
 612 306 612 306 577 229.5 c 128,-1,9
 542 153 542 153 487 103.5 c 128,-1,10
 432 54 432 54 358 27 c 128,-1,11
 284 0 284 0 205 0 c 2,12,-1
 22 0 l 1,13,-1
 22 783 l 1,0,-1
245 662 m 2,14,-1
 142 662 l 1,15,-1
 142 117 l 1,16,-1
 230 117 l 2,17,18
 254 117 254 117 287 125 c 128,-1,19
 320 133 320 133 357 154.5 c 128,-1,20
 394 176 394 176 423 206 c 128,-1,21
 452 236 452 236 472.5 285.5 c 128,-1,22
 493 335 493 335 493 396 c 0,23,24
 493 439 493 439 482.5 477 c 128,-1,25
 472 515 472 515 454 541 c 128,-1,26
 436 567 436 567 412.5 589.5 c 128,-1,27
 389 612 389 612 365.5 624.5 c 128,-1,28
 342 637 342 637 318.5 647 c 128,-1,29
 295 657 295 657 275.5 659.5 c 128,-1,30
 256 662 256 662 245 662 c 2,14,-1
EndSplineSet
Validated: 1
EndChar

StartChar: E
Encoding: 69 69 70
Width: 649
Flags: W
LayerCount: 2
Fore
SplineSet
619 783 m 1,0,-1
 619 664 l 1,1,-1
 151 664 l 1,2,-1
 151 452 l 1,3,-1
 385 452 l 1,4,-1
 385 331 l 1,5,-1
 151 331 l 1,6,-1
 151 119 l 1,7,-1
 619 119 l 1,8,-1
 619 0 l 1,9,-1
 32 0 l 1,10,-1
 32 783 l 1,11,-1
 619 783 l 1,0,-1
EndSplineSet
Validated: 1
EndChar

StartChar: F
Encoding: 70 70 71
Width: 636
Flags: W
LayerCount: 2
Fore
SplineSet
621 783 m 1,0,-1
 621 666 l 1,1,-1
 153 666 l 1,2,-1
 153 452 l 1,3,-1
 387 452 l 1,4,-1
 387 333 l 1,5,-1
 153 333 l 1,6,-1
 153 2 l 1,7,-1
 36 2 l 1,8,-1
 36 783 l 1,9,-1
 621 783 l 1,0,-1
EndSplineSet
Validated: 1
EndChar

StartChar: G
Encoding: 71 71 72
Width: 846
Flags: W
LayerCount: 2
Fore
SplineSet
765 587 m 1,0,-1
 666 526 l 1,1,2
 637 572 637 572 590.5 606.5 c 128,-1,3
 544 641 544 641 493 657 c 0,4,5
 421 675 421 675 351 656 c 128,-1,6
 281 637 281 637 230.5 584 c 128,-1,7
 180 531 180 531 161 459 c 128,-1,8
 142 387 142 387 161 318.5 c 128,-1,9
 180 250 180 250 233 198 c 128,-1,10
 286 146 286 146 357 127 c 128,-1,11
 428 108 428 108 498.5 128 c 128,-1,12
 569 148 569 148 619.5 200 c 128,-1,13
 670 252 670 252 688 324 c 0,14,15
 691 328 691 328 693 335 c 128,-1,16
 695 342 695 342 693 342 c 2,17,-1
 686 342 l 1,18,-1
 290 338 l 1,19,-1
 324 452 l 1,20,-1
 808 459 l 1,21,-1
 810 459 l 1,22,23
 814 448 814 448 814 392 c 0,24,25
 814 369 814 369 810 338.5 c 128,-1,26
 806 308 806 308 794.5 270 c 128,-1,27
 783 232 783 232 760.5 195 c 128,-1,28
 738 158 738 158 710 123 c 128,-1,29
 682 88 682 88 636 60 c 128,-1,30
 590 32 590 32 533 16 c 0,31,32
 414 -16 414 -16 316 14.5 c 128,-1,33
 218 45 218 45 147 118 c 128,-1,34
 76 191 76 191 50 290 c 0,35,36
 36 338 36 338 36 386 c 128,-1,37
 36 434 36 434 46 482.5 c 128,-1,38
 56 531 56 531 78.5 576 c 128,-1,39
 101 621 101 621 133.5 657 c 128,-1,40
 166 693 166 693 214.5 723.5 c 128,-1,41
 263 754 263 754 322 770 c 0,42,43
 371 783 371 783 418.5 784 c 128,-1,44
 466 785 466 785 504 776 c 128,-1,45
 542 767 542 767 579 750.5 c 128,-1,46
 616 734 616 734 645.5 713.5 c 128,-1,47
 675 693 675 693 698.5 669.5 c 128,-1,48
 722 646 722 646 738 625.5 c 128,-1,49
 754 605 754 605 765 587 c 1,0,-1
EndSplineSet
Validated: 33
EndChar

StartChar: H
Encoding: 72 72 73
Width: 652
Flags: W
LayerCount: 2
Fore
SplineSet
153 783 m 1,0,-1
 153 450 l 1,1,-1
 502 450 l 1,2,-1
 502 783 l 1,3,-1
 621 783 l 1,4,-1
 621 0 l 1,5,-1
 502 0 l 1,6,-1
 502 331 l 1,7,-1
 153 331 l 1,8,-1
 153 0 l 1,9,-1
 36 0 l 1,10,-1
 36 783 l 1,11,-1
 153 783 l 1,0,-1
EndSplineSet
Validated: 1
EndChar

StartChar: I
Encoding: 73 73 74
Width: 185
Flags: W
LayerCount: 2
Fore
SplineSet
151 783 m 1,0,-1
 151 0 l 1,1,-1
 34 0 l 1,2,-1
 34 783 l 1,3,-1
 151 783 l 1,0,-1
EndSplineSet
Validated: 1
EndChar

StartChar: J
Encoding: 74 74 75
Width: 519
Flags: W
LayerCount: 2
Fore
SplineSet
371 281 m 1,0,-1
 371 783 l 1,1,-1
 486 783 l 1,2,-1
 486 281 l 1,3,-1
 486 252 l 2,4,5
 486 238 486 238 481.5 209 c 128,-1,6
 477 180 477 180 469 154 c 128,-1,7
 461 128 461 128 443 98 c 128,-1,8
 425 68 425 68 401.5 48.5 c 128,-1,9
 378 29 378 29 340 14.5 c 128,-1,10
 302 0 302 0 253.5 0 c 128,-1,11
 205 0 205 0 166.5 14.5 c 128,-1,12
 128 29 128 29 104 54 c 0,13,14
 79 76 79 76 61 104 c 0,15,16
 45 133 45 133 36 162 c 1,17,-1
 146 202 l 1,18,19
 151 184 151 184 157.5 171 c 128,-1,20
 164 158 164 158 175.5 145.5 c 128,-1,21
 187 133 187 133 207 125 c 128,-1,22
 227 117 227 117 252 117 c 0,23,24
 369 117 369 117 371 277 c 2,25,-1
 371 281 l 1,0,-1
EndSplineSet
Validated: 1
EndChar

StartChar: K
Encoding: 75 75 76
Width: 649
Flags: W
LayerCount: 2
Fore
SplineSet
36 0 m 1,0,-1
 36 783 l 1,1,-1
 153 783 l 1,2,-1
 153 405 l 1,3,-1
 153 396 l 1,4,-1
 160 400 l 1,5,-1
 468 783 l 1,6,-1
 619 783 l 1,7,-1
 304 394 l 1,8,-1
 619 0 l 1,9,-1
 468 0 l 1,10,-1
 230 302 l 1,11,-1
 153 214 l 1,12,-1
 153 0 l 1,13,-1
 36 0 l 1,0,-1
EndSplineSet
Validated: 1
EndChar

StartChar: L
Encoding: 76 76 77
Width: 657
Flags: W
LayerCount: 2
Fore
SplineSet
621 2 m 1,0,-1
 36 2 l 1,1,-1
 36 785 l 1,2,-1
 155 785 l 1,3,-1
 155 119 l 1,4,-1
 621 119 l 1,5,-1
 621 2 l 1,0,-1
EndSplineSet
Validated: 1
EndChar

StartChar: M
Encoding: 77 77 78
Width: 846
Flags: W
LayerCount: 2
Fore
SplineSet
36 783 m 1,0,-1
 171 783 l 1,1,-1
 425 396 l 1,2,-1
 682 783 l 1,3,-1
 814 783 l 1,4,-1
 814 0 l 1,5,-1
 698 0 l 1,6,-1
 698 594 l 1,7,-1
 486 272 l 1,8,-1
 367 272 l 1,9,-1
 153 594 l 1,10,-1
 153 0 l 1,11,-1
 36 0 l 1,12,-1
 36 783 l 1,0,-1
EndSplineSet
Validated: 1
EndChar

StartChar: N
Encoding: 78 78 79
Width: 652
Flags: W
LayerCount: 2
Fore
SplineSet
153 0 m 1,0,-1
 36 0 l 1,1,-1
 36 781 l 1,2,-1
 189 781 l 1,3,-1
 504 180 l 1,4,-1
 504 781 l 1,5,-1
 621 781 l 1,6,-1
 621 0 l 1,7,-1
 468 0 l 1,8,-1
 153 596 l 1,9,-1
 153 0 l 1,0,-1
EndSplineSet
Validated: 1
EndChar

StartChar: O
Encoding: 79 79 80
Width: 847
Flags: W
LayerCount: 2
Fore
SplineSet
149 392 m 128,-1,1
 149 278 149 278 230 196.5 c 128,-1,2
 311 115 311 115 425 115 c 128,-1,3
 539 115 539 115 620 196 c 128,-1,4
 701 277 701 277 701 391 c 128,-1,5
 701 505 701 505 620 586 c 128,-1,6
 539 667 539 667 425 667 c 128,-1,7
 311 667 311 667 230 586.5 c 128,-1,0
 149 506 149 506 149 392 c 128,-1,1
33 390 m 128,-1,9
 33 550 33 550 147.5 664 c 128,-1,10
 262 778 262 778 422 778 c 256,11,12
 582 778 582 778 696 664 c 128,-1,13
 810 550 810 550 810 390 c 256,14,15
 810 230 810 230 696 116 c 128,-1,16
 582 2 582 2 421 2 c 0,17,18
 262 2 262 2 147.5 116 c 128,-1,8
 33 230 33 230 33 390 c 128,-1,9
EndSplineSet
Validated: 1
EndChar

StartChar: P
Encoding: 80 80 81
Width: 652
Flags: W
LayerCount: 2
Fore
SplineSet
36 0 m 1,0,-1
 36 783 l 1,1,-1
 362 783 l 1,2,-1
 374 781 l 2,3,4
 385 781 385 781 397.5 778.5 c 128,-1,5
 410 776 410 776 429 771.5 c 128,-1,6
 448 767 448 767 470.5 759.5 c 128,-1,7
 493 752 493 752 514.5 739.5 c 128,-1,8
 536 727 536 727 554 706.5 c 128,-1,9
 572 686 572 686 587.5 661.5 c 128,-1,10
 603 637 603 637 612 602 c 128,-1,11
 621 567 621 567 621 526 c 0,12,13
 621 475 621 475 605.5 433.5 c 128,-1,14
 590 392 590 392 569.5 366 c 128,-1,15
 549 340 549 340 519.5 321 c 128,-1,16
 490 302 490 302 465.5 293 c 128,-1,17
 441 284 441 284 414 279 c 128,-1,18
 387 274 387 274 378 273 c 128,-1,19
 369 272 369 272 362 272 c 2,20,-1
 153 272 l 1,21,-1
 153 0 l 1,22,-1
 36 0 l 1,0,-1
153 662 m 1,23,-1
 153 389 l 1,24,-1
 362 389 l 2,25,26
 378 389 378 389 394 392.5 c 128,-1,27
 410 396 410 396 430 404 c 128,-1,28
 450 412 450 412 466 426.5 c 128,-1,29
 482 441 482 441 492 467 c 128,-1,30
 502 493 502 493 502 529 c 128,-1,31
 502 565 502 565 492 589.5 c 128,-1,32
 482 614 482 614 467 627.5 c 128,-1,33
 452 641 452 641 431 651.5 c 128,-1,34
 410 662 410 662 395 662 c 2,35,-1
 362 662 l 1,36,-1
 153 662 l 1,23,-1
EndSplineSet
Validated: 1
EndChar

StartChar: Q
Encoding: 81 81 82
Width: 847
Flags: W
LayerCount: 2
Fore
SplineSet
425 0 m 0,0,1
 344 0 344 0 273 30.5 c 128,-1,2
 202 61 202 61 149.5 113.5 c 128,-1,3
 97 166 97 166 66.5 238 c 128,-1,4
 36 310 36 310 36 390 c 128,-1,5
 36 470 36 470 66.5 542 c 128,-1,6
 97 614 97 614 149.5 667 c 128,-1,7
 202 720 202 720 275.5 751.5 c 128,-1,8
 349 783 349 783 426.5 783 c 128,-1,9
 504 783 504 783 577 751.5 c 128,-1,10
 650 720 650 720 703 667 c 128,-1,11
 756 614 756 614 786.5 542 c 128,-1,12
 817 470 817 470 817 392 c 0,13,14
 817 248 817 248 724 137 c 1,15,-1
 817 112 l 1,16,-1
 785 0 l 1,17,-1
 612 47 l 1,18,19
 524 0 524 0 425 0 c 0,0,1
425.5 117 m 128,-1,21
 500 117 500 117 564 154 c 128,-1,22
 628 191 628 191 664 254 c 128,-1,23
 700 317 700 317 700 391.5 c 128,-1,24
 700 466 700 466 664 528 c 128,-1,25
 628 590 628 590 564 627 c 128,-1,26
 500 664 500 664 425.5 664 c 128,-1,27
 351 664 351 664 288 627 c 128,-1,28
 225 590 225 590 189 528 c 128,-1,29
 153 466 153 466 153 391.5 c 128,-1,30
 153 317 153 317 189 254 c 128,-1,31
 225 191 225 191 288 154 c 128,-1,20
 351 117 351 117 425.5 117 c 128,-1,21
EndSplineSet
Validated: 1
EndChar

StartChar: R
Encoding: 82 82 83
Width: 631
Flags: W
LayerCount: 2
Fore
SplineSet
36 783 m 1,0,-1
 342 783 l 1,1,-1
 351 781 l 2,2,3
 362 781 362 781 382.5 776.5 c 128,-1,4
 403 772 403 772 427.5 765 c 128,-1,5
 452 758 452 758 474.5 740 c 128,-1,6
 497 722 497 722 517.5 699.5 c 128,-1,7
 538 677 538 677 550 640 c 128,-1,8
 562 603 562 603 562 555.5 c 128,-1,9
 562 508 562 508 550 470 c 128,-1,10
 538 432 538 432 515.5 408.5 c 128,-1,11
 493 385 493 385 469.5 370.5 c 128,-1,12
 446 356 446 356 421 349 c 1,13,-1
 619 0 l 1,14,-1
 486 0 l 1,15,-1
 295 333 l 1,16,-1
 153 333 l 1,17,-1
 153 0 l 1,18,-1
 36 0 l 1,19,-1
 36 783 l 1,0,-1
153 448 m 1,20,-1
 342 448 l 1,21,-1
 351 450 l 2,22,23
 362 450 362 450 378 457 c 128,-1,24
 394 464 394 464 407.5 473 c 128,-1,25
 421 482 421 482 433.5 503 c 128,-1,26
 446 524 446 524 446 554.5 c 128,-1,27
 446 585 446 585 433.5 607.5 c 128,-1,28
 421 630 421 630 408.5 639 c 128,-1,29
 396 648 396 648 377 655 c 128,-1,30
 358 662 358 662 351 662 c 2,31,-1
 342 662 l 1,32,-1
 153 662 l 1,33,-1
 153 448 l 1,20,-1
EndSplineSet
Validated: 1
EndChar

StartChar: S
Encoding: 83 83 84
Width: 618
Flags: W
LayerCount: 2
Fore
SplineSet
479 556 m 1,0,1
 475 572 475 572 463.5 588.5 c 128,-1,2
 452 605 452 605 433 623 c 128,-1,3
 414 641 414 641 381.5 652.5 c 128,-1,4
 349 664 349 664 311.5 664 c 128,-1,5
 274 664 274 664 245 652.5 c 128,-1,6
 216 641 216 641 200 625.5 c 128,-1,7
 184 610 184 610 178.5 593 c 128,-1,8
 173 576 173 576 173 565 c 0,9,10
 169 526 169 526 199 503 c 0,11,12
 230 477 230 477 310 468 c 0,13,14
 349 461 349 461 385 453.5 c 128,-1,15
 421 446 421 446 462.5 426.5 c 128,-1,16
 504 407 504 407 533 382.5 c 128,-1,17
 562 358 562 358 581.5 317.5 c 128,-1,18
 601 277 601 277 601 225 c 0,19,20
 603 200 603 200 596.5 173 c 128,-1,21
 590 146 590 146 569.5 114.5 c 128,-1,22
 549 83 549 83 518.5 58.5 c 128,-1,23
 488 34 488 34 434 17 c 128,-1,24
 380 0 380 0 312.5 0 c 128,-1,25
 245 0 245 0 189 19 c 128,-1,26
 133 38 133 38 101.5 68.5 c 128,-1,27
 70 99 70 99 49.5 137.5 c 128,-1,28
 29 176 29 176 20 209.5 c 128,-1,29
 11 243 11 243 14 272 c 1,30,-1
 133 272 l 1,31,32
 133 256 133 256 136.5 237 c 128,-1,33
 140 218 140 218 152 195.5 c 128,-1,34
 164 173 164 173 184.5 156.5 c 128,-1,35
 205 140 205 140 237.5 128.5 c 128,-1,36
 270 117 270 117 310 117 c 0,37,38
 396 117 396 117 440 145 c 128,-1,39
 484 173 484 173 484 225 c 0,40,41
 484 274 484 274 435.5 308 c 128,-1,42
 387 342 387 342 310 349 c 0,43,44
 284 353 284 353 266 356.5 c 128,-1,45
 248 360 248 360 218.5 367 c 128,-1,46
 189 374 189 374 168.5 384 c 128,-1,47
 148 394 148 394 124.5 408.5 c 128,-1,48
 101 423 101 423 87.5 444.5 c 128,-1,49
 74 466 74 466 65 495 c 128,-1,50
 56 524 56 524 56 565 c 0,51,52
 56 590 56 590 62 614.5 c 128,-1,53
 68 639 68 639 88 670.5 c 128,-1,54
 108 702 108 702 135 725.5 c 128,-1,55
 162 749 162 749 208 766 c 128,-1,56
 254 783 254 783 310 783 c 0,57,58
 360 783 360 783 406 768.5 c 128,-1,59
 452 754 452 754 485 731.5 c 128,-1,60
 518 709 518 709 541.5 683 c 128,-1,61
 565 657 565 657 577.5 632.5 c 128,-1,62
 590 608 590 608 592 587 c 1,63,-1
 479 556 l 1,0,1
EndSplineSet
Validated: 33
EndChar

StartChar: T
Encoding: 84 84 85
Width: 600
Flags: W
LayerCount: 2
Fore
SplineSet
592 664 m 1,0,-1
 360 664 l 1,1,-1
 360 0 l 1,2,-1
 241 0 l 1,3,-1
 241 664 l 1,4,-1
 7 664 l 1,5,-1
 7 783 l 1,6,-1
 592 783 l 1,7,-1
 592 664 l 1,0,-1
EndSplineSet
Validated: 1
EndChar

StartChar: U
Encoding: 85 85 86
Width: 654
Flags: W
LayerCount: 2
Fore
SplineSet
153 783 m 1,0,-1
 153 292 l 2,1,2
 153 272 153 272 156.5 251 c 128,-1,3
 160 230 160 230 172 205 c 128,-1,4
 184 180 184 180 203.5 161 c 128,-1,5
 223 142 223 142 255.5 128.5 c 128,-1,6
 288 115 288 115 329.5 115 c 128,-1,7
 371 115 371 115 403.5 129.5 c 128,-1,8
 436 144 436 144 454 163 c 128,-1,9
 472 182 472 182 484.5 208 c 128,-1,10
 497 234 497 234 500.5 255.5 c 128,-1,11
 504 277 504 277 504 292 c 2,12,-1
 504 783 l 1,13,-1
 621 783 l 1,14,-1
 621 292 l 2,15,16
 621 270 621 270 617.5 245 c 128,-1,17
 614 220 614 220 605 191 c 128,-1,18
 596 162 596 162 580.5 135 c 128,-1,19
 565 108 565 108 541.5 84.5 c 128,-1,20
 518 61 518 61 488.5 41.5 c 128,-1,21
 459 22 459 22 417.5 12 c 128,-1,22
 376 2 376 2 328 2 c 0,23,24
 261 2 261 2 209.5 21 c 128,-1,25
 158 40 158 40 125 72 c 128,-1,26
 92 104 92 104 72 143 c 128,-1,27
 52 182 52 182 44 219 c 128,-1,28
 36 256 36 256 36 292 c 2,29,-1
 36 783 l 1,30,-1
 153 783 l 1,0,-1
EndSplineSet
Validated: 1
EndChar

StartChar: V
Encoding: 86 86 87
Width: 769
Flags: W
LayerCount: 2
Fore
SplineSet
160 783 m 1,0,-1
 389 133 l 1,1,-1
 614 783 l 1,2,-1
 738 783 l 1,3,-1
 468 0 l 1,4,-1
 308 0 l 1,5,-1
 36 783 l 1,6,-1
 160 783 l 1,0,-1
EndSplineSet
Validated: 1
EndChar

StartChar: W
Encoding: 87 87 88
Width: 1003
Flags: W
LayerCount: 2
Fore
SplineSet
230 2 m 1,0,-1
 36 783 l 1,1,-1
 158 783 l 1,2,-1
 297 214 l 2,3,4
 299 202 299 202 300.5 203.5 c 128,-1,5
 302 205 302 205 302 214 c 2,6,-1
 441 783 l 1,7,-1
 567 783 l 1,8,-1
 709 214 l 1,9,-1
 709 205 l 1,10,-1
 711 214 l 1,11,-1
 850 783 l 1,12,-1
 972 783 l 1,13,-1
 783 2 l 1,14,-1
 637 2 l 1,15,-1
 506 531 l 2,16,17
 504 540 504 540 504 539 c 128,-1,18
 504 538 504 538 502 531 c 2,19,-1
 374 2 l 1,20,-1
 230 2 l 1,0,-1
EndSplineSet
Validated: 1
EndChar

StartChar: X
Encoding: 88 88 89
Width: 652
Flags: W
LayerCount: 2
Fore
SplineSet
259 392 m 1,0,-1
 36 783 l 1,1,-1
 173 783 l 1,2,-1
 328 511 l 1,3,-1
 484 783 l 1,4,-1
 621 783 l 1,5,-1
 396 392 l 1,6,-1
 621 2 l 1,7,-1
 484 2 l 1,8,-1
 328 272 l 1,9,-1
 173 2 l 1,10,-1
 36 2 l 1,11,-1
 259 392 l 1,0,-1
EndSplineSet
Validated: 1
EndChar

StartChar: Y
Encoding: 89 89 90
Width: 652
Flags: W
LayerCount: 2
Fore
SplineSet
171 783 m 1,0,-1
 328 515 l 1,1,-1
 486 783 l 1,2,-1
 621 783 l 1,3,-1
 387 382 l 1,4,-1
 387 0 l 1,5,-1
 270 0 l 1,6,-1
 270 382 l 1,7,-1
 36 783 l 1,8,-1
 171 783 l 1,0,-1
EndSplineSet
Validated: 1
EndChar

StartChar: Z
Encoding: 90 90 91
Width: 652
Flags: W
LayerCount: 2
Fore
SplineSet
621 783 m 1,0,-1
 238 117 l 1,1,-1
 621 117 l 1,2,-1
 621 0 l 1,3,-1
 36 0 l 1,4,-1
 416 662 l 1,5,-1
 36 662 l 1,6,-1
 36 783 l 1,7,-1
 621 783 l 1,0,-1
EndSplineSet
Validated: 1
EndChar

StartChar: asciicircum
Encoding: 94 94 95
Width: 458
Flags: W
LayerCount: 2
Fore
SplineSet
308 780 m 1,0,-1
 181 780 l 1,1,-1
 148 780 l 1,2,-1
 34 448 l 1,3,-1
 160 448 l 1,4,-1
 228 647 l 1,5,-1
 298 448 l 1,6,-1
 424 448 l 1,7,-1
 308 780 l 1,0,-1
EndSplineSet
Validated: 9
EndChar

StartChar: a
Encoding: 97 97 98
Width: 666
Flags: W
LayerCount: 2
Fore
SplineSet
630 587 m 1,0,-1
 630 0 l 1,1,-1
 520 0 l 1,2,-1
 520 61 l 1,3,-1
 520 68 l 1,4,-1
 518 65 l 1,5,6
 448 0 448 0 331 0 c 0,7,8
 223 0 223 0 129.5 80 c 128,-1,9
 36 160 36 160 36 297 c 0,10,11
 36 436 36 436 128 514 c 128,-1,12
 220 592 220 592 331 592 c 0,13,14
 457 592 457 592 518 531 c 0,15,16
 520 529 520 529 520 533 c 2,17,-1
 520 587 l 1,18,-1
 630 587 l 1,0,-1
331 108 m 128,-1,20
 410 108 410 108 466 163 c 128,-1,21
 522 218 522 218 522 296 c 128,-1,22
 522 374 522 374 466 431 c 128,-1,23
 410 488 410 488 331 488 c 128,-1,24
 252 488 252 488 196 431 c 128,-1,25
 140 374 140 374 140 296 c 128,-1,26
 140 218 140 218 196 163 c 128,-1,19
 252 108 252 108 331 108 c 128,-1,20
EndSplineSet
Validated: 1
EndChar

StartChar: b
Encoding: 98 98 99
Width: 663
Flags: W
LayerCount: 2
Fore
SplineSet
36 781 m 1,0,-1
 144 781 l 1,1,-1
 144 536 l 2,2,3
 144 526 144 526 145 526 c 128,-1,4
 146 526 146 526 151 531 c 0,5,6
 225 592 225 592 335 594 c 0,7,8
 439 594 439 594 518.5 531 c 128,-1,9
 598 468 598 468 621 369 c 0,10,11
 632 333 632 333 632 297 c 0,12,13
 632 173 632 173 545.5 86.5 c 128,-1,14
 459 0 459 0 335 0 c 0,15,16
 227 0 227 0 153 61 c 0,17,18
 144 68 144 68 144 58 c 2,19,-1
 144 0 l 1,20,-1
 36 0 l 1,21,-1
 36 781 l 1,0,-1
334 108 m 128,-1,23
 414 108 414 108 469 163 c 128,-1,24
 524 218 524 218 524 297 c 128,-1,25
 524 376 524 376 469 434.5 c 128,-1,26
 414 493 414 493 334 493 c 128,-1,27
 254 493 254 493 198 434.5 c 128,-1,28
 142 376 142 376 142 297 c 128,-1,29
 142 218 142 218 198 163 c 128,-1,22
 254 108 254 108 334 108 c 128,-1,23
EndSplineSet
Validated: 1
EndChar

StartChar: c
Encoding: 99 99 100
Width: 616
Flags: W
LayerCount: 2
Fore
SplineSet
590 151 m 1,0,1
 565 99 565 99 497.5 49.5 c 128,-1,2
 430 0 430 0 331 0 c 0,3,4
 198 0 198 0 117 90 c 128,-1,5
 36 180 36 180 36 295 c 128,-1,6
 36 410 36 410 118 501 c 128,-1,7
 200 592 200 592 331 592 c 0,8,9
 430 592 430 592 497.5 544.5 c 128,-1,10
 565 497 565 497 590 446 c 1,11,-1
 493 394 l 1,12,13
 432 488 432 488 331 486 c 0,14,15
 256 486 256 486 198 433 c 128,-1,16
 140 380 140 380 140 296 c 128,-1,17
 140 212 140 212 198 160 c 128,-1,18
 256 108 256 108 331 108 c 0,19,20
 428 108 428 108 495 205 c 1,21,-1
 590 151 l 1,0,1
EndSplineSet
Validated: 33
EndChar

StartChar: d
Encoding: 100 100 101
Width: 663
Flags: W
LayerCount: 2
Fore
SplineSet
626 783 m 1,0,-1
 626 2 l 1,1,-1
 518 2 l 1,2,-1
 518 61 l 1,3,-1
 518 69 l 2,4,5
 518 70 518 70 513 65 c 0,6,7
 439 2 439 2 328 2 c 0,8,9
 205 2 205 2 117 89 c 128,-1,10
 29 176 29 176 29 298.5 c 128,-1,11
 29 421 29 421 117 508.5 c 128,-1,12
 205 596 205 596 328 596 c 0,13,14
 436 596 436 596 513 531 c 0,15,16
 518 526 518 526 518 528 c 2,17,-1
 518 538 l 1,18,-1
 518 783 l 1,19,-1
 626 783 l 1,0,-1
327.5 108 m 128,-1,21
 407 108 407 108 462.5 163 c 128,-1,22
 518 218 518 218 518 298 c 128,-1,23
 518 378 518 378 462.5 435.5 c 128,-1,24
 407 493 407 493 327.5 493 c 128,-1,25
 248 493 248 493 191.5 435.5 c 128,-1,26
 135 378 135 378 135 298 c 128,-1,27
 135 218 135 218 191.5 163 c 128,-1,20
 248 108 248 108 327.5 108 c 128,-1,21
EndSplineSet
Validated: 1
EndChar

StartChar: e
Encoding: 101 101 102
Width: 664
Flags: W
LayerCount: 2
Fore
SplineSet
514 245 m 1,0,-1
 616 218 l 1,1,2
 609 189 609 189 590 155.5 c 128,-1,3
 571 122 571 122 538.5 86 c 128,-1,4
 506 50 506 50 452 25 c 128,-1,5
 398 0 398 0 330 0 c 0,6,7
 197 0 197 0 117.5 89 c 128,-1,8
 38 178 38 178 38 297 c 0,9,10
 38 414 38 414 119 502 c 128,-1,11
 200 590 200 590 330 590 c 0,12,13
 393 590 393 590 449.5 566 c 128,-1,14
 506 542 506 542 538.5 505 c 128,-1,15
 571 468 571 468 591 435.5 c 128,-1,16
 611 403 611 403 616 374 c 0,17,18
 627 331 627 331 627 324 c 1,19,-1
 625 324 l 1,20,-1
 175 205 l 2,21,22
 166 202 166 202 172 194 c 0,23,24
 231 106 231 106 330 108 c 0,25,26
 393 108 393 108 442.5 145 c 128,-1,27
 492 182 492 182 514 245 c 1,0,-1
148 342 m 2,28,-1
 144 332 l 2,29,30
 143 328 143 328 142 322.5 c 128,-1,31
 141 317 141 317 141 313 c 0,32,33
 141 306 141 306 142 304 c 0,34,35
 143 301 143 301 150 304 c 2,36,-1
 488 396 l 1,37,-1
 490 396 l 2,38,39
 492 396 492 396 488 403 c 0,40,41
 449 457 449 457 380 479 c 0,42,43
 359 486 359 486 332 486 c 0,44,45
 272 486 272 486 221 447 c 0,46,47
 170 407 170 407 148 342 c 2,28,-1
EndSplineSet
Validated: 33
EndChar

StartChar: f
Encoding: 102 102 103
Width: 464
Flags: W
LayerCount: 2
Fore
SplineSet
200 0 m 1,0,-1
 92 0 l 1,1,-1
 90 482 l 1,2,-1
 34 482 l 1,3,-1
 63 590 l 1,4,-1
 90 590 l 1,5,-1
 90 662 l 2,6,7
 90 704 90 704 101.5 743.5 c 128,-1,8
 113 783 113 783 144 820 c 0,9,10
 180 862 180 862 228 871 c 0,11,12
 252 875 252 875 275 875 c 0,13,14
 336 875 336 875 375 844.5 c 128,-1,15
 414 814 414 814 430 783 c 1,16,-1
 329 747 l 1,17,18
 313 772 313 772 275 772 c 0,19,20
 252 772 252 772 243 767 c 0,21,22
 200 752 200 752 200 698 c 2,23,-1
 200 590 l 1,24,-1
 430 590 l 1,25,-1
 401 482 l 1,26,-1
 200 482 l 1,27,-1
 200 0 l 1,0,-1
EndSplineSet
Validated: 1
EndChar

StartChar: g
Encoding: 103 103 104
Width: 666
Flags: W
LayerCount: 2
Fore
SplineSet
522 583 m 1,0,-1
 630 583 l 1,1,-1
 630 68 l 1,2,-1
 630 61 l 2,3,4
 630 22 630 22 622 -19.5 c 128,-1,5
 614 -61 614 -61 593 -108 c 128,-1,6
 572 -155 572 -155 541.5 -191 c 128,-1,7
 511 -227 511 -227 457 -252 c 128,-1,8
 403 -277 403 -277 335 -277 c 0,9,10
 209 -277 209 -277 138.5 -217.5 c 128,-1,11
 68 -158 68 -158 45 -76 c 1,12,-1
 151 -50 l 1,13,14
 191 -171 191 -171 335 -169 c 0,15,16
 405 -169 405 -169 450 -126 c 128,-1,17
 495 -83 495 -83 508.5 -37 c 128,-1,18
 522 9 522 9 522 56 c 2,19,-1
 522 68 l 1,20,-1
 518 63 l 1,21,22
 454 0 454 0 335 0 c 0,23,24
 227 0 227 0 131.5 80 c 128,-1,25
 36 160 36 160 36 297 c 0,26,27
 36 436 36 436 127 514 c 128,-1,28
 218 592 218 592 335 592 c 0,29,30
 403 592 403 592 451.5 571.5 c 128,-1,31
 500 551 500 551 518 529 c 1,32,-1
 522 522 l 1,33,-1
 522 531 l 1,34,-1
 522 583 l 1,0,-1
331 108 m 128,-1,36
 410 108 410 108 466 163 c 128,-1,37
 522 218 522 218 522 296 c 128,-1,38
 522 374 522 374 466 431 c 128,-1,39
 410 488 410 488 331 488 c 128,-1,40
 252 488 252 488 196 431 c 128,-1,41
 140 374 140 374 140 296 c 128,-1,42
 140 218 140 218 196 163 c 128,-1,35
 252 108 252 108 331 108 c 128,-1,36
EndSplineSet
Validated: 33
EndChar

StartChar: h
Encoding: 104 104 105
Width: 537
Flags: W
LayerCount: 2
Fore
SplineSet
36 0 m 1,0,-1
 36 774 l 1,1,-1
 144 774 l 1,2,-1
 144 560 l 2,3,4
 144 551 144 551 151 556 c 0,5,6
 202 585 202 585 270 585 c 0,7,8
 353 585 353 585 409.5 540 c 128,-1,9
 466 495 466 495 483 445.5 c 128,-1,10
 500 396 500 396 502 349 c 2,11,-1
 502 0 l 1,12,-1
 394 0 l 1,13,-1
 394 349 l 2,14,15
 394 378 394 378 388 403 c 128,-1,16
 382 428 382 428 352 453.5 c 128,-1,17
 322 479 322 479 270 479 c 0,18,19
 232 479 232 479 205 465.5 c 128,-1,20
 178 452 178 452 165.5 429.5 c 128,-1,21
 153 407 153 407 148.5 389 c 128,-1,22
 144 371 144 371 144 349 c 2,23,-1
 144 0 l 1,24,-1
 36 0 l 1,0,-1
EndSplineSet
Validated: 1
EndChar

StartChar: i
Encoding: 105 105 106
Width: 180
Flags: W
LayerCount: 2
Fore
SplineSet
144 730.5 m 128,-1,1
 144 709 144 709 127 693 c 128,-1,2
 110 677 110 677 89 677 c 128,-1,3
 68 677 68 677 52 693 c 128,-1,4
 36 709 36 709 36 730.5 c 128,-1,5
 36 752 36 752 52 767.5 c 128,-1,6
 68 783 68 783 89 783 c 128,-1,7
 110 783 110 783 127 767.5 c 128,-1,0
 144 752 144 752 144 730.5 c 128,-1,1
144 578 m 1,8,-1
 144 -2 l 1,9,-1
 38 -2 l 1,10,-1
 38 578 l 1,11,-1
 144 578 l 1,8,-1
EndSplineSet
Validated: 1
EndChar

StartChar: j
Encoding: 106 106 107
Width: 177
Flags: W
LayerCount: 2
Fore
SplineSet
38 578 m 1,0,-1
 142 578 l 1,1,-1
 142 108 l 1,2,-1
 142 -27 l 2,3,4
 142 -124 142 -124 118 -174.5 c 128,-1,5
 94 -225 94 -225 14 -241 c 0,6,7
 -9 -245 -9 -245 -29 -245 c 0,8,9
 -86 -245 -86 -245 -124 -218 c 128,-1,10
 -162 -191 -162 -191 -178 -160 c 1,11,-1
 -83 -124 l 1,12,13
 -68 -146 -68 -146 -32 -146 c 0,14,15
 -16 -146 -16 -146 -4 -140 c 0,16,17
 38 -124 38 -124 40 -81 c 2,18,-1
 38 578 l 1,0,-1
144 730.5 m 128,-1,20
 144 709 144 709 128 693 c 128,-1,21
 112 677 112 677 91 677 c 128,-1,22
 70 677 70 677 53 693 c 128,-1,23
 36 709 36 709 36 730.5 c 128,-1,24
 36 752 36 752 53 767.5 c 128,-1,25
 70 783 70 783 91 783 c 128,-1,26
 112 783 112 783 128 767.5 c 128,-1,19
 144 752 144 752 144 730.5 c 128,-1,20
EndSplineSet
Validated: 1
EndChar

StartChar: k
Encoding: 107 107 108
Width: 499
Flags: W
LayerCount: 2
Fore
SplineSet
38 2 m 1,0,-1
 38 783 l 1,1,-1
 144 783 l 1,2,-1
 144 394 l 2,3,4
 144 380 144 380 153 389 c 2,5,-1
 310 580 l 1,6,-1
 448 580 l 1,7,-1
 277 371 l 1,8,-1
 506 2 l 1,9,-1
 380 2 l 1,10,-1
 209 277 l 2,11,12
 205 284 205 284 200 279 c 2,13,-1
 198 277 l 1,14,-1
 146 216 l 1,15,-1
 146 2 l 1,16,-1
 38 2 l 1,0,-1
EndSplineSet
Validated: 1
EndChar

StartChar: l
Encoding: 108 108 109
Width: 193
Flags: W
LayerCount: 2
Fore
SplineSet
156 783 m 1,0,-1
 156 0 l 1,1,-1
 37 0 l 1,2,-1
 37 783 l 1,3,-1
 156 783 l 1,0,-1
EndSplineSet
Validated: 1
EndChar

StartChar: m
Encoding: 109 109 110
Width: 908
Flags: W
LayerCount: 2
Fore
SplineSet
159 0 m 1,0,-1
 44 0 l 1,1,-1
 44 362 l 2,2,3
 44 461 44 461 110.5 526.5 c 128,-1,4
 177 592 177 592 278 592 c 0,5,6
 339 592 339 592 383 574 c 0,7,8
 431 556 431 556 445 538 c 2,9,-1
 460 518 l 1,10,11
 467 526 467 526 478.5 537.5 c 128,-1,12
 490 549 490 549 533.5 570.5 c 128,-1,13
 577 592 577 592 638 592 c 0,14,15
 746 592 746 592 809 532 c 128,-1,16
 872 472 872 472 872 362 c 2,17,-1
 872 0 l 1,18,-1
 760 0 l 1,19,-1
 760 362 l 1,20,-1
 759 374 l 2,21,22
 757 385 757 385 750.5 405 c 128,-1,23
 744 425 744 425 732.5 442 c 128,-1,24
 721 459 721 459 696.5 472.5 c 128,-1,25
 672 486 672 486 638 486 c 128,-1,26
 604 486 604 486 579.5 472.5 c 128,-1,27
 555 459 555 459 543.5 443.5 c 128,-1,28
 532 428 532 428 525.5 407.5 c 128,-1,29
 519 387 519 387 518 378 c 128,-1,30
 517 369 517 369 517 362 c 2,31,-1
 517 0 l 1,32,-1
 404 0 l 1,33,-1
 404 362 l 1,34,-1
 403 375 l 2,35,36
 402 387 402 387 394 407.5 c 128,-1,37
 386 428 386 428 375 443.5 c 128,-1,38
 364 459 364 459 338 472.5 c 128,-1,39
 312 486 312 486 278 486 c 0,40,41
 242 486 242 486 217.5 472.5 c 128,-1,42
 193 459 193 459 181.5 441 c 128,-1,43
 170 423 170 423 164.5 405 c 128,-1,44
 159 387 159 387 159 374 c 2,45,-1
 159 362 l 1,46,-1
 159 0 l 1,0,-1
EndSplineSet
Validated: 1
EndChar

StartChar: n
Encoding: 110 110 111
Width: 532
Flags: W
LayerCount: 2
Fore
SplineSet
502 360 m 2,0,-1
 502 0 l 1,1,-1
 387 0 l 1,2,-1
 387 360 l 2,3,4
 387 486 387 486 266 487 c 0,5,6
 212 486 212 486 186 469 c 0,7,8
 162 452 162 452 151 418 c 0,9,10
 144 393 144 393 144 360 c 2,11,-1
 144 0 l 1,12,-1
 29 0 l 1,13,-1
 29 360 l 2,14,15
 29 387 29 387 34.5 415 c 128,-1,16
 40 443 40 443 61 486 c 0,17,18
 88 540 88 540 139 566 c 0,19,20
 191 594 191 594 266 594 c 0,21,22
 328 594 328 594 374 573 c 0,23,24
 421 551 421 551 443 524 c 0,25,26
 466 495 466 495 481 460 c 0,27,28
 495 423 495 423 498 400 c 0,29,30
 502 376 502 376 502 360 c 2,0,-1
EndSplineSet
Validated: 1
EndChar

StartChar: o
Encoding: 111 111 112
Width: 645
Flags: W
LayerCount: 2
Fore
SplineSet
614 298.5 m 128,-1,1
 614 176 614 176 527.5 88 c 128,-1,2
 441 0 441 0 317.5 0 c 128,-1,3
 194 0 194 0 106 88 c 128,-1,4
 18 176 18 176 18 298.5 c 128,-1,5
 18 421 18 421 106 508.5 c 128,-1,6
 194 596 194 596 317.5 596 c 128,-1,7
 441 596 441 596 527.5 508.5 c 128,-1,0
 614 421 614 421 614 298.5 c 128,-1,1
317 108 m 128,-1,9
 396 108 396 108 452 164 c 128,-1,10
 508 220 508 220 508 298 c 128,-1,11
 508 376 508 376 452 433 c 128,-1,12
 396 490 396 490 317 490 c 128,-1,13
 238 490 238 490 182 433 c 128,-1,14
 126 376 126 376 126 298 c 128,-1,15
 126 220 126 220 182 164 c 128,-1,8
 238 108 238 108 317 108 c 128,-1,9
EndSplineSet
Validated: 1
EndChar

StartChar: p
Encoding: 112 112 113
Width: 675
Flags: W
LayerCount: 2
Fore
SplineSet
151 580 m 1,0,-1
 151 531 l 2,1,2
 151 520 151 520 155 526 c 0,3,4
 173 549 173 549 221.5 569.5 c 128,-1,5
 270 590 270 590 338 590 c 0,6,7
 452 590 452 590 544.5 512 c 128,-1,8
 637 434 637 434 637 297 c 128,-1,9
 637 160 637 160 541.5 80 c 128,-1,10
 446 0 446 0 338 0 c 0,11,12
 225 0 225 0 158 63 c 0,13,14
 151 70 151 70 151 61 c 2,15,-1
 151 -270 l 1,16,-1
 45 -270 l 1,17,-1
 45 580 l 1,18,-1
 112 580 l 1,19,-1
 151 580 l 1,0,-1
342 108 m 128,-1,21
 421 108 421 108 477 162 c 128,-1,22
 533 216 533 216 533 295 c 128,-1,23
 533 374 533 374 477 430 c 128,-1,24
 421 486 421 486 342 486 c 128,-1,25
 263 486 263 486 207 430 c 128,-1,26
 151 374 151 374 151 295 c 128,-1,27
 151 216 151 216 207 162 c 128,-1,20
 263 108 263 108 342 108 c 128,-1,21
EndSplineSet
Validated: 1
EndChar

StartChar: q
Encoding: 113 113 114
Width: 675
Flags: W
LayerCount: 2
Fore
SplineSet
529 580 m 1,0,-1
 634 580 l 1,1,-1
 634 -274 l 1,2,-1
 529 -274 l 1,3,-1
 529 61 l 2,4,5
 529 72 529 72 522 63 c 0,6,7
 454 0 454 0 342 0 c 0,8,9
 234 0 234 0 137 79 c 128,-1,10
 40 158 40 158 40 297 c 128,-1,11
 40 436 40 436 132.5 513 c 128,-1,12
 225 590 225 590 342 590 c 0,13,14
 410 590 410 590 457 570.5 c 128,-1,15
 504 551 504 551 524 526 c 0,16,17
 529 522 529 522 529 523 c 2,18,-1
 529 531 l 1,19,-1
 529 580 l 1,0,-1
337 108 m 128,-1,21
 418 108 418 108 473.5 162 c 128,-1,22
 529 216 529 216 529 295 c 128,-1,23
 529 374 529 374 473.5 430 c 128,-1,24
 418 486 418 486 337 486 c 128,-1,25
 256 486 256 486 201 430 c 128,-1,26
 146 374 146 374 146 295 c 128,-1,27
 146 216 146 216 201 162 c 128,-1,20
 256 108 256 108 337 108 c 128,-1,21
EndSplineSet
Validated: 1
EndChar

StartChar: r
Encoding: 114 114 115
Width: 337
Flags: W
LayerCount: 2
Fore
SplineSet
38 0 m 1,0,-1
 38 358 l 1,1,-1
 38 587 l 1,2,-1
 153 587 l 1,3,-1
 153 565 l 1,4,5
 202 594 202 594 274 594 c 0,6,7
 317 594 317 594 353 585 c 1,8,-1
 317 479 l 1,9,10
 299 484 299 484 274 486 c 0,11,12
 153 486 153 486 153 358 c 2,13,-1
 153 0 l 1,14,-1
 38 0 l 1,0,-1
EndSplineSet
Validated: 1
EndChar

StartChar: s
Encoding: 115 115 116
Width: 477
Flags: W
LayerCount: 2
Fore
SplineSet
241 591 m 0,0,1
 328 591 328 591 379 542.5 c 128,-1,2
 430 494 430 494 443 443 c 1,3,-1
 343 415 l 1,4,5
 320 484 320 484 241 484 c 0,6,7
 192 484 192 484 172.5 462 c 128,-1,8
 153 440 153 440 153 413 c 0,9,10
 153 379 153 379 224 366 c 2,11,-1
 233 364 l 1,12,13
 298 355 298 355 343.5 332 c 128,-1,14
 389 309 389 309 408.5 288.5 c 128,-1,15
 428 268 428 268 437.5 243 c 128,-1,16
 447 218 447 218 448.5 205.5 c 128,-1,17
 450 193 450 193 450 179 c 0,18,19
 450 142 450 142 441 116 c 0,20,21
 403 1 403 1 241 1 c 0,22,23
 180 1 180 1 134 23 c 128,-1,24
 88 45 88 45 65.5 78.5 c 128,-1,25
 43 112 43 112 32.5 144.5 c 128,-1,26
 22 177 22 177 22 205 c 1,27,-1
 124 205 l 1,28,29
 135 108 135 108 241 108 c 2,30,-1
 249 108 l 2,31,32
 328 109 328 109 346 164 c 0,33,34
 348 169 348 169 348 171 c 2,35,-1
 348 177 l 2,36,37
 348 242 348 242 233 256 c 0,38,39
 172 264 172 264 131.5 283.5 c 128,-1,40
 91 303 91 303 75.5 330.5 c 128,-1,41
 60 358 60 358 55 377.5 c 128,-1,42
 50 397 50 397 50 421 c 0,43,44
 50 442 50 442 58 468 c 128,-1,45
 66 494 66 494 85 523 c 128,-1,46
 104 552 104 552 145 571.5 c 128,-1,47
 186 591 186 591 241 591 c 0,0,1
EndSplineSet
Validated: 1
EndChar

StartChar: t
Encoding: 116 116 117
Width: 432
Flags: W
LayerCount: 2
Fore
SplineSet
86 207 m 2,0,-1
 86 778 l 1,1,-1
 191 778 l 1,2,-1
 191 176 l 2,3,4
 191 164 191 164 203.5 141.5 c 128,-1,5
 216 119 216 119 238 110 c 0,6,7
 252 105 252 105 277 106 c 0,8,9
 302 106 302 106 320 128 c 1,10,-1
 421 92 l 1,11,12
 407 58 407 58 365.5 30 c 128,-1,13
 324 2 324 2 263 2 c 0,14,15
 241 2 241 2 218 7 c 0,16,17
 146 20 146 20 116 81 c 128,-1,18
 86 142 86 142 86 207 c 2,0,-1
191 477 m 1,19,-1
 191 583 l 1,20,-1
 421 583 l 1,21,-1
 389 477 l 1,22,-1
 191 477 l 1,19,-1
29 477 m 1,23,-1
 58 583 l 1,24,-1
 86 583 l 1,25,-1
 86 477 l 1,26,-1
 29 477 l 1,23,-1
EndSplineSet
Validated: 37
EndChar

StartChar: u
Encoding: 117 117 118
Width: 535
Flags: W
LayerCount: 2
Fore
SplineSet
31 238 m 2,0,-1
 31 596 l 1,1,-1
 143 596 l 1,2,-1
 143 238 l 2,3,4
 143 111 143 111 266 111 c 0,5,6
 306 111 306 111 334 125 c 128,-1,7
 362 139 362 139 373 162.5 c 128,-1,8
 384 186 384 186 387.5 203.5 c 128,-1,9
 391 221 391 221 391 238 c 2,10,-1
 391 596 l 1,11,-1
 503 596 l 1,12,-1
 504 299 l 2,13,14
 503 282 503 282 501 258 c 0,15,16
 499 178 499 178 480 133 c 0,17,18
 461 91 461 91 437 64 c 0,19,20
 420 45 420 45 368 20 c 0,21,22
 328 0 328 0 265 2 c 0,23,24
 205 2 205 2 159 23 c 128,-1,25
 113 44 113 44 89.5 72.5 c 128,-1,26
 66 101 66 101 52 137 c 128,-1,27
 38 173 38 173 34.5 196 c 128,-1,28
 31 219 31 219 31 238 c 2,0,-1
EndSplineSet
Validated: 33
EndChar

StartChar: v
Encoding: 118 118 119
Width: 523
Flags: W
LayerCount: 2
Fore
SplineSet
97 583 m 1,0,-1
 266 128 l 1,1,-1
 434 583 l 1,2,-1
 542 583 l 1,3,-1
 328 0 l 1,4,-1
 202 0 l 1,5,-1
 -14 583 l 1,6,-1
 97 583 l 1,0,-1
EndSplineSet
Validated: 1
EndChar

StartChar: w
Encoding: 119 119 120
Width: 771
Flags: W
LayerCount: 2
Fore
SplineSet
146 585 m 1,0,-1
 146 205 l 1,1,-1
 146 194 l 2,2,3
 146 187 146 187 152 170 c 128,-1,4
 158 153 158 153 165.5 140.5 c 128,-1,5
 173 128 173 128 192.5 117 c 128,-1,6
 212 106 212 106 238 106 c 0,7,8
 281 106 281 106 306 130 c 0,9,10
 331 158 331 158 333 180 c 2,11,-1
 335 205 l 1,12,-1
 335 585 l 1,13,-1
 441 585 l 1,14,-1
 441 205 l 1,15,-1
 441 194 l 2,16,17
 441 187 441 187 445.5 170 c 128,-1,18
 450 153 450 153 459 140.5 c 128,-1,19
 468 128 468 128 489.5 117 c 128,-1,20
 511 106 511 106 538 106 c 0,21,22
 580 108 580 108 602 133 c 0,23,24
 626 160 626 160 628 180 c 2,25,-1
 630 205 l 1,26,-1
 630 585 l 1,27,-1
 734 585 l 1,28,-1
 734 205 l 1,29,-1
 734 196 l 2,30,31
 734 104 734 104 676.5 52 c 128,-1,32
 619 0 619 0 538 0 c 0,33,34
 488 0 488 0 451 18 c 128,-1,35
 414 36 414 36 400 52 c 2,36,-1
 387 68 l 1,37,-1
 380 60 l 2,38,39
 369 50 369 50 359 42 c 128,-1,40
 349 34 349 34 333 25 c 128,-1,41
 317 16 317 16 292.5 8 c 128,-1,42
 268 0 268 0 238 0 c 0,43,44
 158 0 158 0 98 54 c 128,-1,45
 38 108 38 108 38 205 c 2,46,-1
 38 585 l 1,47,-1
 146 585 l 1,0,-1
EndSplineSet
Validated: 1
EndChar

StartChar: x
Encoding: 120 120 121
Width: 483
Flags: W
LayerCount: 2
Fore
SplineSet
180 288 m 1,0,-1
 9 580 l 1,1,-1
 130 580 l 1,2,-1
 241 394 l 1,3,-1
 353 580 l 1,4,-1
 475 580 l 1,5,-1
 302 288 l 1,6,-1
 472 0 l 1,7,-1
 349 0 l 1,8,-1
 241 182 l 1,9,-1
 133 0 l 1,10,-1
 9 0 l 1,11,-1
 180 288 l 1,0,-1
EndSplineSet
Validated: 1
EndChar

StartChar: y
Encoding: 121 121 122
Width: 640
Flags: W
LayerCount: 2
Fore
SplineSet
493 580 m 1,0,-1
 605 580 l 1,1,-1
 605 68 l 1,2,-1
 605 61 l 2,3,4
 605 22 605 22 597 -19.5 c 128,-1,5
 589 -61 589 -61 569 -108 c 128,-1,6
 549 -155 549 -155 518.5 -191 c 128,-1,7
 488 -227 488 -227 434 -252 c 128,-1,8
 380 -277 380 -277 313 -277 c 0,9,10
 187 -277 187 -277 117 -218.5 c 128,-1,11
 47 -160 47 -160 25 -76 c 1,12,-1
 128 -50 l 1,13,14
 168 -169 168 -169 307 -169 c 0,15,16
 310 -169 310 -169 313 -169 c 0,17,18
 385 -169 385 -169 428.5 -126 c 128,-1,19
 472 -83 472 -83 485.5 -34.5 c 128,-1,20
 499 14 499 14 499 61 c 2,21,-1
 499 65 l 2,22,23
 499 68 499 68 497 65 c 2,24,-1
 493 61 l 2,25,26
 432 0 432 0 313 0 c 0,27,28
 205 0 205 0 108 79 c 128,-1,29
 11 158 11 158 11 297 c 2,30,-1
 11 580 l 1,31,-1
 124 578 l 1,32,-1
 124 295 l 2,33,34
 124 214 124 214 176.5 160 c 128,-1,35
 229 106 229 106 308 106 c 128,-1,36
 387 106 387 106 440 161 c 128,-1,37
 493 216 493 216 493 297 c 2,38,-1
 493 580 l 1,0,-1
EndSplineSet
Validated: 1
EndChar

StartChar: z
Encoding: 122 122 123
Width: 526
Flags: W
LayerCount: 2
Fore
SplineSet
34 578 m 1,0,-1
 493 578 l 1,1,-1
 214 108 l 1,2,-1
 493 108 l 1,3,-1
 493 0 l 1,4,-1
 34 0 l 1,5,-1
 313 472 l 1,6,-1
 34 472 l 1,7,-1
 34 578 l 1,0,-1
EndSplineSet
Validated: 1
EndChar

